# xmcd
#
# Track frame offsets:
#	150
#	17740
#	34713
#	48970
#	62970
#	78950
#	93723
#	106530
#	120063
#	135730
#	152948
#	163515
#	176873
#	189935
#	205738
#	219850
#	236248
#
# Disc length: 3374
#
# Revision: 2
# Processed by: cddbd v1.5.1PL0 Copyright (c) Steve Scherf et al.
# Submitted via: audiograbber 1.81.00
# Normalized: r1:DSETVAR1
#
DISCID=d90d2c11
DTITLE=Various Artist - CDX Volume 31 May 1992
DYEAR=1992
DGENRE=Country
TTITLE0=STEVE WARINER - A WOMAN LOVES
TTITLE1=KAREN BROOKS and RANDY SHARP - BABY I'M THE ONE
TTITLE2=BILLY DEAN - BILLY THE KID
TTITLE3=HANK WILLIAMS JR. - COME ON OVER TO THE COUNTRY
TTITLE4=THE BELLAMY BROTHERS - COWBOY BEAT
TTITLE5=JUDY FIELDS - EYES OF LOVE
TTITLE6=DARRYL and DON ELLIS - GOODBYE HIGHWAY
TTITLE7=MICHAEL MARTIN MURPHY - I DON'T DO FLOORS
TTITLE8=JEFF KNIGHT - I WISH SHE DIDN'T KNOW ME
TTITLE9=GREAT PLAINS - IOLA
TTITLE10=GREAT PLAINS - DIALOGUE, IOLA UNPLUGGED
TTITLE11=KAREN TOBIN - LOVE FROM A HEART OF STONE
TTITLE12=JASON - ONE FOOT IN THE HONKY TONK
TTITLE13=MARTY STUART AND TRAVIS TRITT - THIS ON'ES GONNA HURT YOU (FOR A LONG, LONG TIME)
TTITLE14=THE REMINGTONS - TWO-TIMIN' ME
TTITLE15=LEE ROY PARNELL - WHAT KIND OF FOOL DO YOU THINK I AM
TTITLE16=LITTLE TEXAS - YOU AND FOREVER AND ME
EXTD=
EXTT0=
EXTT1=
EXTT2=
EXTT3=
EXTT4=
EXTT5=
EXTT6=
EXTT7=
EXTT8=
EXTT9=
EXTT10=
EXTT11=
EXTT12=
EXTT13=
EXTT14=
EXTT15=
EXTT16=
PLAYORDER=
